<?xml version="1.0" encoding="UTF-8"?>
<svg id="Capa_2" data-name="Capa 2" xmlns="http://www.w3.org/2000/svg" viewBox="0 0 500 500">
  <defs>
    <style>
      .cls-1 {
        fill: #1a1a1a;
      }

      .cls-1, .cls-2, .cls-3, .cls-4 {
        stroke-width: 0px;
      }

      .cls-2 {
        fill: #398aff;
      }

      .cls-3 {
        fill: #ffb64d;
      }

      .cls-4 {
        fill: #fff;
      }
    </style>
  </defs>
  <g id="Capa_1-2" data-name="Capa 1">
    <g>
      <g>
        <path class="cls-3" d="M250,480c-61.44,0-119.19-23.92-162.63-67.37-43.44-43.44-67.37-101.2-67.37-162.63s23.92-119.19,67.37-162.63C130.81,43.92,188.56,20,250,20s119.19,23.92,162.63,67.37,67.37,101.2,67.37,162.63-23.92,119.19-67.37,162.63-101.2,67.37-162.63,67.37Z"/>
        <path class="cls-1" d="M250,40c56.09,0,108.83,21.84,148.49,61.51,39.66,39.66,61.51,92.4,61.51,148.49s-21.84,108.83-61.51,148.49c-39.66,39.66-92.4,61.51-148.49,61.51s-108.83-21.84-148.49-61.51c-39.66-39.66-61.51-92.4-61.51-148.49s21.84-108.83,61.51-148.49c39.66-39.66,92.4-61.51,148.49-61.51M250,0C111.93,0,0,111.93,0,250s111.93,250,250,250,250-111.93,250-250S388.07,0,250,0h0Z"/>
      </g>
      <g>
        <g>
          <path class="cls-1" d="M351.7,286.06c-3.18,0-6.35-.13-9.45-.4-5.45.21-11.15.31-16.98.31s-11.41-.1-16.43-.3c-47,0-69.72-.06-86.81-10.86-6.97,5.21-15.62,8.3-24.97,8.3h-41.83c-6.08,0-11.86-1.3-17.08-3.65-5.22,2.34-11,3.65-17.08,3.65h-41.83c-23.06,0-41.82-18.76-41.82-41.82v-82.49c0-16.47-.53-30.67-.92-39.91-.49-11.32,3.73-22.52,11.58-30.71,7.85-8.19,18.85-12.89,30.2-12.89h35.78c4.43,0,8.72.69,12.75,1.98,9.2-3.19,19.09-4.84,29.46-4.84,13.37,0,25.91,2.96,36.85,8.39,11.64-5.55,24.45-8.39,38.14-8.39h.38c10.32.04,30.23,1.99,47.57,14.62,3.93,2.86,7.53,6.13,10.79,9.77,22.47-17.67,52.26-27.73,84.12-27.73.89,0,1.79,0,2.69.02,20.61.35,37.57,16.31,39.19,36.85l2.44,30.96c1.61.04,3.23.18,4.84.42,12.58,1.88,23.53,9.62,29.47,20.87l16.05,30.37c7.6,14.38,5.74,31.93-4.72,44.39-20.86,24.87-48.94,42.23-79.07,48.89-7.09,1.57-18.94,4.19-33.3,4.19ZM113.31,171.58"/>
          <path class="cls-1" d="M341.55,409.67c-1.75,0-3.77-.02-6.13-.04-3-.03-6.58-.06-10.87-.06,0,0-8.18.02-9.71.02-11.24,0-23.45,0-35.6-4.3-7.36,2.58-15.26,3.95-23.42,3.95-1.94,0-3.88-.07-5.8-.22-1.06.02-2.2.04-3.42.06-2.68.04-5.75.09-9.28.16l-1.83.04c-3.48.07-6.76.13-9.84.13-8.89,0-18.33-.56-28.32-3.8-7.2,2.39-14.94,3.64-22.93,3.64-1.36,0-2.74-.04-4.13-.12-1.4.05-2.86.09-4.37.12-6.19.11-11.54.21-16.5.21-10.02,0-24.31,0-37.59-5.52-5.05,2.3-10.66,3.59-16.58,3.59h-23.99c-22.09,0-40-17.91-40-40v-52.44c0-9.34-.31-17.03-.58-22.7-.52-10.93,3.45-21.6,11-29.52,7.55-7.92,18.01-12.4,28.95-12.4h20.78c2.45,0,4.85.22,7.19.65,5.63-1.51,11.71-2.38,18.23-2.38,10.74,0,21.05,2.33,30.05,6.68,9.19-3.49,22-6.68,38.05-6.68,11.31,0,20.81,1.86,28.72,4.69,4.67-1.91,9.77-2.96,15.13-2.96h23.99c4.34,0,8.51.69,12.42,1.97,3.91-1.28,8.09-1.97,12.42-1.97h13.57c5.52-7.62,13.7-13.28,23.39-15.53l23.43-5.42c2.98-.69,6.01-1.03,9.01-1.03,8.96,0,17.75,3.01,24.9,8.69,4.66,3.71,8.37,8.35,10.95,13.55,6.31-1.22,13.47-2,21.42-2,44.12,0,73.77,29.44,73.77,73.25v26.87c0,6.51.37,10.23.52,11.17,2.23,11.69-.86,23.77-8.44,32.96-7.6,9.21-18.91,14.54-30.85,14.54h-21.57c-2.04,0-4.05-.15-6.02-.45-5.73,1.44-11.74,2.18-17.91,2.18-1.17,0-2.37-.03-3.57-.09h-.83c-2.76.05-5.95.09-9.47.09,0,0-5.35,0-7.14,0-3.33,0-6.06,0-8.48.01-1.99,0-3.77.01-5.5.01-2.39,0-4.5,0-6.62-.03-3.59.39-7.07.44-10.59.44Z"/>
        </g>
        <g>
          <path class="cls-4" d="M77.42,241.29c0,1,.81,1.82,1.82,1.82h41.83c1,0,1.82-.81,1.82-1.82v-71.38c0-3.05.19-6.5,1.36-9.48,1.75-4.22,5.85-10.46,14.22-10.46,10.59,0,14.94,9.35,14.94,23.64v67.68c0,1,.81,1.82,1.82,1.82h41.83c1,0,1.82-.81,1.82-1.82v-71.06c0-2.79.32-6.75,1.23-9.42,2.08-6.04,6.82-10.85,14.29-10.85,2.64,0,4.91.59,6.82,1.72,7.49,4.44,8.18,23.22,8.18,23.22.77,32.82,1.3,55.29,12.35,64.85,6.84,5.91,27.19,5.91,67.91,5.91h0c8.68.37,21.42.47,33.73-.09,13.24,1.57,25.37-1.09,32.98-2.77,30.81-6.81,49.75-26.83,57.05-35.54-5.35-10.12-10.7-20.25-16.05-30.37-25.52,25.69-54.32,34.25-67.51,24.81-3.83-2.74-9.44-9.18-11.86-18.07-7.89-29.03,17.97-41.33,40.86-39.53l-2.76-35.01c-57.19-.98-98.25,40.1-83.86,88.94,1.76,6.4,4.1,12.19,6.96,17.38-.04,0-.09,0-.13,0-13.28.66-21.24,1.05-25.65-4.15-3.62-4.27-1.95-8.91-1.43-44.79.03-1.91.04-2.86.04-3.21-.03-9.4-1.46-33.04-16.38-43.9-9.18-6.68-21.22-6.94-24.18-6.95-16.95-.06-29.88,7.17-40.14,20.33h-.52c-5.52-12.73-18.25-20.33-34.55-20.33-21.17,0-32.31,11.53-37.27,18.06-.34.45-.87.71-1.44.71l-1.69-14.31c-.11-.91-.88-1.6-1.8-1.6h-35.78c-1.03,0-1.86.86-1.82,1.89.49,11.48.96,25.5.96,41.62v82.49Z"/>
          <path class="cls-2" d="M438.03,348.86v-26.87c0-18.09-8.11-33.25-33.77-33.25-14.08,0-24.58,3.84-29.95,6.91l4.41,15.33c5.13-3.08,13.38-5.75,21.24-5.75,11.91-.02,14.11,5.83,14.11,9.92v.98c-27.26-.04-45.22,9.48-45.22,29.55,0,1.23.1,2.44.28,3.64-5.44.43-9.68.42-12.67.32-1.73-.06-4.06-.15-6.02-1.75-2.5-2.05-3.43-5.93-3.43-11.82v-27.92h17.24v-17.67h-17.24v-21.98l-23.43,5.42v16.56h-10.24v17.67h10.24v31.52c0,2.94.16,5.62.48,8.05-7.8.05-14.34,1.89-18.77-2.75-2.68-2.8-3.02-6.32-3.37-11.75-.64-10.12-1.12-24.54-.33-42.74h-23.99v45.92c0,1.92-.27,3.69-.87,5.08-1.54,3.91-5.4,8.43-11.91,8.43-8.45,0-12.06-6.75-12.06-18.02v-41.41h-23.99v45.3c0,5.02.52,9.4,1.47,13.21-3.87.11-6.95-.07-9.39-2.71-4.04-4.37-.23-8.9-2.17-24.29-1.25-9.88-2.19-18.41-8.44-24.68-5.29-5.31-13.42-8.58-25.33-8.58-14.08,0-24.58,3.84-29.95,6.91l4.41,15.33c5.13-3.08,13.38-5.75,21.24-5.75,11.91-.02,14.11,5.83,14.11,9.92v.98c-27.26-.04-45.22,9.48-45.22,29.55,0,1.65.17,3.29.5,4.88-1.61.01-3.05-.32-4.4-1.43-3.74-3.05-2.05-7.95-2.64-20.65-.69-14.76-1.29-27.8-9.71-34.66-6.14-5.01-14.4-5.08-16.42-5.08-12.86,0-20.7,7.45-23.81,12.41h-.5l-1.11-10.68h-20.78c.33,6.9.63,15.02.63,24.61v52.44h23.99v-44.46c0-2.14.22-4.42.84-5.92,1.66-4.43,5.56-9.05,12.15-9.05,2.68,0,4.86.65,6.61,1.85,4.79,3.28,5.42,11.38,5.58,14.88,1.43,32.45-.69,34.8,2.34,38.86,4.69,6.27,17.27,6.04,42.44,5.58,2.17-.04,4.11-.1,5.84-.19,1.09.12,2.22.19,3.38.19,9.12,0,16.98-3.25,22.01-9.39h.51c1.6,1.48,4.1,3.56,7.5,5.42,8.46,4.62,15.87,4.28,32.13,3.97,6.35-.12,11.24-.19,15.02-.26,1.37.17,2.79.26,4.24.26,13.82,0,21-7.84,24.01-12.61h.5c1.05,1.89,2.85,4.64,5.79,7.15,7.3,6.22,15.64,5.82,36.97,5.78,16.28-.03,23.24.41,26.31-.39,9.31.14,13.97.01,29.41.05,4.84.01,9.06-.06,12.4-.1.83.07,1.68.11,2.56.11,9.12,0,16.98-3.25,22.01-9.39h.51l1.41,7.66h21.57c-.83-4.33-1.23-11.31-1.23-18.66ZM195.43,339.51c0,1.36-.08,2.85-.45,4.09-1.57,4.94-6.53,8.85-12.39,8.85-5.45,0-9.51-3.02-9.51-9.22,0-9.17,9.74-12.21,22.35-12.14v8.42ZM414.79,339.51c0,1.36-.08,2.85-.45,4.09-1.57,4.94-6.53,8.85-12.39,8.85-5.45,0-9.51-3.02-9.51-9.22,0-9.17,9.74-12.21,22.35-12.14v8.42Z"/>
        </g>
      </g>
    </g>
  </g>
</svg>